PathFileType	4	(X/Y/Z)	C:\Users\WrightLab\Desktop\Jo\P3_24.trc
DataRate	CameraRate	NumFrames	NumMarkers	Units	OrigDataRate	OrigDataStartFrame	OrigNumFrames
100.00	100.00	       17	19	mm	100.00	229	       609
Frame#	Time	Headset_Front			Headset_Back			Headset_Left			Headset_Right			Left_Shoulder			Right_Shoulder			Sternum			C7			Left Elbow			Right Elbow			Left Wrist			Right Wrist			Left ASIS			Right ASIS			S2			Left Knee			Right Knee			Left Ankle			Right Ankle			
		X1	Y1	Z1	X2	Y2	Z2	X3	Y3	Z3	X4	Y4	Z4	X5	Y5	Z5	X6	Y6	Z6	X7	Y7	Z7	X8	Y8	Z8	X9	Y9	Z9	X10	Y10	Z10	X11	Y11	Z11	X12	Y12	Z12	X13	Y13	Z13	X14	Y14	Z14	X15	Y15	Z15	X16	Y16	Z16	X17	Y17	Z17	X18	Y18	Z18	X19	Y19	Z19	

229	2.280	-316.38602	1443.24451	426.02399	-217.84685	1627.13489	644.64142	-354.59372	1544.56982	605.73846	-185.20909	1511.06689	454.34995	-349.31003	1342.08093	752.93671	-44.89804	1342.44897	561.80914	-272.62668	1225.88879	547.91461	-169.69864	1396.36475	690.81873	-384.21686	1005.01392	805.63409	46.32998	1001.73132	530.32251	-414.49066	821.42883	710.84729	-42.33030	871.17163	362.33698	-338.23410	847.79028	631.80255				-122.52918	943.34082	735.24506	-270.77237	422.02365	705.50500	-156.33600	458.45956	464.15341	-99.69724	218.67390	914.70203	-150.86058	120.04817	479.84698	
230	2.290	-320.73755	1444.75757	417.47452	-222.94952	1628.14453	636.81842	-359.79614	1546.16919	597.28210	-189.67967	1511.33386	445.22888	-352.90588	1343.15991	745.11334	-50.04774	1342.81140	552.41974	-278.16656	1226.91089	539.77844	-173.49988	1397.22534	682.12183	-388.70050	1006.79016	798.03766	41.36768	1002.34320	517.94958	-421.26117	823.40698	702.44946	-46.56611	872.71344	349.47125	-342.36481	848.71027	624.14935				-126.96352	944.08905	727.45764	-282.86841	421.31244	687.56299	-159.17636	457.65814	461.21521	-109.14950	223.68472	899.77673	-151.41272	119.76897	479.36038	
231	2.300	-325.04391	1446.15430	408.86508	-226.34811	1628.62695	628.41583	-364.27765	1547.08350	588.66071	-193.53674	1513.56323	437.01917	-357.30042	1344.26135	736.98035	-55.39597	1343.55457	543.29468	-282.90781	1227.43420	531.94275	-177.73810	1398.20569	673.93896	-393.56393	1007.48962	790.14691	36.19524	1003.14966	505.26544	-427.92416	825.74005	693.43286	-51.71298	875.06427	335.83713	-346.60672	849.47955	616.86743				-131.63438	944.73810	720.09283	-295.67944	421.82751	670.54480	-162.50943	457.05215	457.89120	-118.55811	229.26735	884.06989	-152.63000	119.21813	479.28998	
232	2.310	-329.09070	1447.22473	400.03397	-230.88953	1629.12585	620.52545	-368.71417	1547.94421	579.80151				-361.61917	1344.95544	729.37195	-60.29034	1344.25562	534.83990	-288.55182	1227.77332	524.25781	-182.91331	1399.38916	665.99524	-398.91446	1008.96960	783.32391	31.59049	1004.32739	492.82922	-434.23611	827.75146	684.65076	-56.53735	877.27832	322.81171	-350.76831	850.41608	609.58429				-136.20984	944.96844	712.88885	-308.00897	423.05774	652.47058	-165.36067	456.22726	454.36923	-128.04005	236.00946	869.15887	-154.27121	118.71151	479.24948	
233	2.320	-332.96085	1448.13440	391.33557	-236.03395	1629.69177	612.69318	-373.60931	1549.04797	570.92297	-201.73817	1515.06921	421.06836	-366.19586	1345.95349	721.75006	-65.45317	1344.67236	525.99304	-293.43765	1228.00000	516.94318	-187.72423	1399.70349	657.79797	-404.19955	1009.13483	775.47589	26.84301	1005.50153	479.90552	-441.28717	829.70715	676.19684	-61.52619	879.85309	309.55844	-354.85468	851.25336	602.47522	-156.90495	883.17432	447.04120	-139.96233	944.98346	704.27527	-321.01465	424.35873	635.25934	-168.37474	456.44000	451.31158	-138.92024	242.79466	852.43750	-155.90016	118.73504	478.85767	
234	2.330	-337.00354	1448.73535	383.01590	-241.43169	1630.17993	604.85938	-376.98279	1549.17603	562.72791				-370.71530	1346.16382	714.29462	-70.97531	1345.31787	517.83044	-298.70032	1227.88098	509.58734	-192.55774	1400.42322	649.39496	-409.87811	1010.01904	767.58722	21.54234	1006.39807	468.30396	-447.69147	831.40204	667.54572	-66.27663	882.41797	296.30844	-359.41028	852.01111	596.00104	-160.38795	882.02832	445.05502	-143.59413	945.49860	696.59698	-333.48770	426.13757	618.14020	-170.85498	456.13004	448.45856	-148.29845	246.66566	835.23578	-157.72574	118.85510	477.56577	
235	2.340	-340.93643	1448.97742	374.41467	-246.09450	1630.50537	596.78656	-382.07227	1549.42664	554.09595	-209.84987	1515.80237	406.69620	-375.14316	1346.35010	706.86176	-77.14204	1345.64294	509.19775	-303.70767	1227.72717	502.58279	-197.41704	1401.11658	641.51099	-414.67245	1010.04193	760.29578	16.71249	1007.91003	455.78464	-454.39349	833.29022	659.07977	-71.00662	884.88867	283.46927	-363.82416	853.43451	589.66418				-147.25661	946.88953	689.70074	-346.05664	427.82010	601.53491	-173.89847	456.05457	445.59033	-159.35550	250.65253	817.71082	-159.28961	118.46034	476.95355	
236	2.350	-345.15186	1449.35608	366.49860	-251.62006	1631.06482	589.06647	-388.80942	1550.62439	545.09021	-212.42586	1513.37732	400.33353	-380.19843	1346.60022	700.22205	-82.28800	1346.26135	500.72226	-309.13882	1227.74255	495.44846	-202.32588	1401.17102	634.15961	-419.34055	1010.75256	753.25684	11.93778	1009.36346	444.12442	-461.20602	834.61639	650.65796	-76.82681	887.79584	272.12189	-367.88168	853.93964	582.69922				-150.28442	947.57080	682.77313	-358.87256	430.45526	584.95795	-177.08501	455.83517	442.39383	-171.47421	251.06030	795.31488	-160.67043	118.41775	475.99179	
237	2.360	-349.30936	1449.63513	356.94415	-257.35864	1631.39758	581.30109	-394.26672	1551.00439	536.12732	-218.56990	1515.51331	390.98303	-385.09201	1347.07495	692.93939	-88.13097	1347.20972	491.93967	-314.30945	1227.53638	488.47864	-207.59288	1402.13647	626.49286	-424.39090	1010.70709	746.54742	6.84703	1010.80603	432.55331	-467.27496	836.31561	642.22986	-80.72934	890.67328	258.96243	-371.80289	855.47150	576.21442				-153.48497	948.31909	675.19751	-371.57913	433.10492	569.28833	-179.42111	454.99075	439.14374	-183.68065	253.51625	781.39349	-162.03513	118.60490	475.25934	
238	2.370	-353.21066	1449.28796	349.65918	-262.71774	1631.68713	573.24390	-399.29651	1551.31763	527.85034	-220.75050	1514.03809	387.19281	-389.40109	1347.13098	686.35309	-93.62289	1347.56653	484.50253	-319.37811	1227.27832	481.46710	-212.73810	1402.62329	618.44104	-429.84985	1010.66736	739.75226	1.46334	1012.29315	421.03262	-473.63876	837.46484	633.84552	-85.99943	892.94379	246.96066	-376.15900	856.06842	570.10547				-156.96619	949.25043	668.17108	-384.02234	436.79047	553.70770	-182.90771	454.09518	435.23114	-195.63722	252.71248	762.20514	-162.51303	118.55534	475.00330	
239	2.380	-357.32623	1449.20618	341.39093	-268.76926	1632.19360	565.54871	-404.64435	1551.43066	519.43842	-225.22214	1513.78650	380.71738	-394.44794	1346.89819	679.35687	-99.52448	1348.13892	475.33743	-324.67056	1227.27441	474.88373	-218.17134	1403.10559	611.04962	-434.97189	1010.97363	732.06085	-3.67437	1013.80811	410.22916	-479.96378	838.93292	625.53766	-90.63622	895.86353	234.64543	-379.68073	857.24530	563.67316				-160.25804	949.60400	661.17804	-396.04343	440.70718	538.72485	-185.62317	453.11066	431.75107	-208.54016	251.87579	743.75732	-163.12413	118.79532	473.46967	
240	2.390	-362.02435	1448.75098	333.86392	-274.56281	1632.65308	557.77905	-410.33795	1551.47131	510.93118	-229.43509	1512.74744	382.09482	-399.13773	1347.24182	672.24158	-105.11214	1348.84082	468.37140	-329.62143	1226.91345	468.15781	-223.28493	1403.60510	603.37421	-440.31677	1010.98682	725.29736	-8.16862	1015.50092	399.26776	-485.90915	839.86407	617.39362	-94.39498	899.23279	221.92723	-383.90057	858.24219	557.74438				-164.52852	950.30774	654.02087	-407.93985	444.47357	523.35712	-188.86580	452.85562	427.90707	-221.72530	250.04033	725.35229	-163.94215	118.58869	473.27951	
241	2.400	-366.15210	1448.21521	325.59564	-279.73303	1632.19861	549.85187	-415.40390	1551.56104	502.24939	-235.29456	1513.18518	362.53482	-404.09189	1347.15967	666.26672	-110.62981	1349.57593	460.07983	-334.80267	1226.53540	461.87616	-228.36627	1403.77637	596.58197	-444.85056	1011.45166	718.61847	-13.69243	1017.22552	388.93140	-492.09732	841.09277	609.53485	-98.36432	901.79248	209.88159	-387.84964	859.19427	551.66284				-168.49524	951.00848	647.25916	-419.83444	448.92740	509.55505	-191.25504	452.57208	424.81955	-235.67680	247.80530	706.35425	-163.83652	118.80402	472.07959	
242	2.410	-370.55615	1448.20825	317.72720	-285.57227	1632.63745	541.96088	-420.85223	1551.40051	493.97430	-239.49611	1513.49023	356.20718	-408.98856	1346.86865	659.41754	-116.73289	1349.96362	451.36780	-339.84509	1226.18665	455.44998	-233.91632	1404.38831	589.18323	-449.26151	1011.15265	711.33423	-18.28682	1018.34784	378.33746	-498.07858	842.00665	601.41962	-103.28161	903.86584	199.30447	-391.74841	859.83875	545.41376				-172.35861	950.59082	640.46155	-431.32108	452.56607	495.60641	-194.00038	452.09641	421.24170	-250.61472	244.14726	687.64038	-164.84386	118.24604	471.80545	
243	2.420	-375.16138	1447.13257	310.08560	-290.82510	1632.50977	534.15436	-426.61478	1551.32422	485.81793	-244.56120	1512.62756	349.44641	-413.75745	1347.28918	652.55725	-122.56390	1350.38940	444.60373	-344.95187	1225.84363	449.06543	-239.91013	1404.74475	582.33643	-454.34082	1011.10809	704.51270	-23.31645	1020.18579	367.94272	-504.04913	842.62689	593.84253	-107.82439	906.78644	187.89897	-396.01920	860.55511	539.34863				-176.30042	951.25159	633.98114	-442.53659	457.29477	482.37741	-196.42859	451.81024	418.00217	-265.50436	239.91251	667.23639	-165.23570	118.59324	471.42551	
244	2.430	-379.37439	1446.39233	301.85968	-297.31235	1632.43542	526.70154	-430.59491	1550.84351	477.78195	-249.66307	1512.66394	342.36166	-418.52856	1346.98120	645.62860	-127.86552	1351.94678	438.98364	-350.24985	1225.90637	442.54684	-245.54282	1405.44519	575.26404	-459.80460	1011.23511	697.69092	-28.31915	1021.93787	357.19989	-509.58365	843.09113	586.06329	-111.81698	909.42737	176.84395	-400.21640	861.29071	533.15088				-179.87329	950.87567	625.97943	-453.33264	461.30121	470.17603	-198.80769	451.13513	414.82217	-280.78705	233.83810	648.06970	-165.57399	118.60919	471.34787	
245	2.440	-384.09598	1445.86584	294.45459	-303.51205	1632.67932	519.09039	-437.41379	1550.79932	469.62561	-253.92693	1512.09045	336.16547	-423.95230	1346.86365	639.59497	-133.39108	1352.44971	432.25525	-355.06815	1225.18506	436.15289	-250.53180	1405.07239	568.21716	-464.07281	1010.63031	690.40656	-33.35910	1022.97498	347.05634	-515.26587	843.67627	578.41748	-115.40471	911.42645	165.38992	-405.10864	861.70209	527.24933				-184.27222	951.11322	619.75189	-463.56924	465.57114	458.25717	-201.11603	450.07068	412.66391	-297.33301	227.07008	629.03943	-166.20341	118.65047	470.79541	
